<svg xmlns="http://www.w3.org/2000/svg" height="20" viewBox="0 96 960 960" width="20"><path d="M311.798 528Q262 528 227 492.798t-35-85Q192 358 227.202 323t85-35Q362 288 397 323.202t35 85Q432 458 396.798 493t-85 35Zm.202-72q20 0 34-14t14-34q0-20-14-34t-34-14q-20 0-34 14t-14 34q0 20 14 34t34 14Zm335.798 408Q598 864 563 828.798t-35-85Q528 694 563.202 659t85-35Q698 624 733 659.202t35 85Q768 794 732.798 829t-85 35Zm.202-72q20 0 34-14t14-34q0-20-14-34t-34-14q-20 0-34 14t-14 34q0 20 14 34t34 14Zm-405 72-51-51 525-525 51 51-525 525Z"/></svg>